<svg width="25" height="25" viewBox="0 0 25 25" fill="none" xmlns="http://www.w3.org/2000/svg">
<circle cx="12.5" cy="12.5" r="12.5" fill="#1DBF73"/>
<path d="M16.3624 8.86235L10.625 14.5997L8.01265 11.9874L8.01265 11.9873C7.72952 11.7042 7.27048 11.7042 6.98735 11.9873L7.05806 12.0581L6.98735 11.9873C6.70422 12.2705 6.70422 12.7295 6.98735 13.0126L9.67041 15.6957L9.74112 15.625L9.67041 15.6957C10.1976 16.2229 11.0524 16.223 11.5796 15.6957C11.5796 15.6957 11.5796 15.6957 11.5796 15.6957L17.3876 9.88765L17.3169 9.81694L17.3877 9.88765C17.6708 9.60452 17.6708 9.14548 17.3877 8.86235L17.3169 8.93306L17.3876 8.86235C17.1045 8.57922 16.6455 8.57922 16.3624 8.86235Z" fill="white" stroke="white" stroke-width="0.2"/>
</svg>
